<?xml version="1.0" encoding="UTF-8" standalone="no"?>
<!-- Generator: Adobe Illustrator 19.0.0, SVG Export Plug-In . SVG Version: 6.00 Build 0)  -->

<svg
   xmlns:dc="http://purl.org/dc/elements/1.1/"
   xmlns:cc="http://creativecommons.org/ns#"
   xmlns:rdf="http://www.w3.org/1999/02/22-rdf-syntax-ns#"
   xmlns:svg="http://www.w3.org/2000/svg"
   xmlns="http://www.w3.org/2000/svg"
   xmlns:sodipodi="http://sodipodi.sourceforge.net/DTD/sodipodi-0.dtd"
   xmlns:inkscape="http://www.inkscape.org/namespaces/inkscape"
   version="1.1"
   id="Capa_1"
   x="0px"
   y="0px"
   viewBox="0 0 29.781257 114"
   xml:space="preserve"
   sodipodi:docname="water_medium.svg"
   width="29.781258"
   height="114"
   inkscape:version="0.92.3 (2405546, 2018-03-11)"><metadata
   id="metadata47"><rdf:RDF><cc:Work
       rdf:about=""><dc:format>image/svg+xml</dc:format><dc:type
         rdf:resource="http://purl.org/dc/dcmitype/StillImage" /><dc:title></dc:title></cc:Work></rdf:RDF></metadata><defs
   id="defs45" /><sodipodi:namedview
   pagecolor="#ffffff"
   bordercolor="#666666"
   borderopacity="1"
   objecttolerance="10"
   gridtolerance="10"
   guidetolerance="10"
   inkscape:pageopacity="0"
   inkscape:pageshadow="2"
   inkscape:window-width="1853"
   inkscape:window-height="1025"
   id="namedview43"
   showgrid="false"
   fit-margin-top="0"
   fit-margin-left="0"
   fit-margin-right="0"
   fit-margin-bottom="0"
   inkscape:zoom="0.49673229"
   inkscape:cx="-277.15942"
   inkscape:cy="237.5525"
   inkscape:window-x="67"
   inkscape:window-y="27"
   inkscape:window-maximized="1"
   inkscape:current-layer="Capa_1" />
<g
   id="g10"
   transform="matrix(0.23994696,0,0,0.23994696,-42.109492,0)">
	<g
   id="g8">
		<path
   d="m 290.338,186.54 c 5.893,-4.329 9.272,-10.831 9.272,-17.838 v -64.457 c 0,-24.258 -14.271,-46.432 -36.358,-56.491 -1.321,-0.602 -2.174,-1.942 -2.174,-3.416 v -6.269 h 3.589 V 9.959 C 264.668,4.468 260.2,0 254.708,0 h -34.306 c -5.492,0 -9.959,4.468 -9.959,9.959 v 28.109 h 3.591 v 6.269 c 0,1.474 -0.854,2.814 -2.174,3.416 -22.091,10.061 -36.365,32.235 -36.365,56.492 v 64.457 c 0,7.011 3.383,13.513 9.278,17.838 2.446,1.797 3.849,4.565 3.849,7.595 0,3.033 -1.405,5.802 -3.855,7.599 -5.806,4.259 -9.272,10.926 -9.272,17.832 v 202.027 c 0,3.579 0.186,7.17 0.553,10.667 0.351,3.423 0.873,6.853 1.554,10.193 l 3.802,18.647 c 0.833,3.947 3.022,7.521 6.158,10.061 3.133,2.543 7.081,3.944 11.118,3.944 3.81,0 7.449,-1.202 10.523,-3.477 0.551,-0.408 1.076,-0.852 1.577,-1.324 0.314,0.295 0.638,0.582 0.976,0.856 3.132,2.543 7.081,3.944 11.118,3.944 3.735,0 7.299,-1.161 10.323,-3.344 2.991,2.155 6.609,3.344 10.31,3.344 3.815,0 7.454,-1.204 10.518,-3.477 1.3,-0.962 2.435,-2.087 3.409,-3.332 0.819,1.051 1.747,2.019 2.791,2.865 3.132,2.543 7.081,3.944 11.118,3.944 3.811,0 7.45,-1.202 10.529,-3.48 3.026,-2.245 5.215,-5.329 6.337,-8.924 l 7.577,-20.087 c 2.538,-6.732 3.825,-13.805 3.825,-21.021 V 219.566 c 0,-7 -3.378,-13.5 -9.272,-17.838 -2.446,-1.797 -3.848,-4.565 -3.848,-7.595 0,-3.03 1.402,-5.797 3.847,-7.593 z M 218.443,9.959 c 0,-1.08 0.879,-1.959 1.959,-1.959 h 34.306 c 1.081,0 1.959,0.879 1.959,1.959 v 20.109 h -38.224 z m -3.267,45.075 c 4.166,-1.897 6.858,-6.096 6.858,-10.696 v -6.269 h 31.044 v 6.269 c 0,4.6 2.692,8.799 6.858,10.696 4.86,2.214 9.285,5.103 13.186,8.522 h -71.134 c 3.902,-3.419 8.327,-6.308 13.188,-8.522 z m -10.729,410.163 c -1.688,1.249 -3.681,1.908 -5.766,1.908 -2.207,0 -4.364,-0.765 -6.08,-2.158 -1.718,-1.391 -2.915,-3.344 -3.364,-5.472 l -3.797,-18.619 c -0.237,-1.164 -0.446,-2.342 -0.641,-3.526 10.464,3.762 18.464,12.762 20.798,23.765 0.166,0.791 0.386,1.568 0.658,2.326 -0.526,0.667 -1.129,1.273 -1.808,1.776 z m 44.816,0.003 c -1.68,1.246 -3.67,1.905 -5.755,1.905 -1.776,0 -3.517,-0.503 -5.019,-1.419 0.521,-0.99 0.962,-2.029 1.294,-3.121 l 1.872,-6.18 c 1.095,-3.614 2.815,-6.971 5.031,-9.944 3.045,3.452 5.31,7.472 6.657,11.886 l -0.583,1.916 c -0.608,2 -1.816,3.713 -3.497,4.957 z m 36.338,-285.107 c -4.453,3.272 -7.111,8.521 -7.111,14.041 0,5.521 2.658,10.77 7.108,14.04 3.82,2.812 6.012,6.964 6.012,11.393 v 202.027 c 0,6.249 -1.114,12.372 -3.311,18.198 l -7.62,20.202 -0.084,0.25 c -0.607,2 -1.814,3.714 -3.486,4.954 -1.688,1.249 -3.682,1.908 -5.767,1.908 -2.206,0 -4.364,-0.765 -6.079,-2.158 -1.718,-1.391 -2.915,-3.344 -3.371,-5.503 -1.505,-7.093 -4.813,-13.514 -9.639,-18.804 2.775,-2.26 5.923,-4.079 9.347,-5.323 2.077,-0.754 3.148,-3.049 2.394,-5.125 -0.755,-2.076 -3.049,-3.149 -5.125,-2.394 -11.902,4.324 -21.201,14.145 -24.873,26.269 l -1.871,6.177 c -0.607,2 -1.815,3.713 -3.497,4.958 -1.68,1.246 -3.67,1.905 -5.755,1.905 -2.207,0 -4.364,-0.765 -6.077,-2.156 -1.016,-0.824 -1.87,-1.865 -2.471,-3.012 l -0.153,-0.29 c -0.337,-0.699 -0.589,-1.437 -0.75,-2.204 -3.184,-15.012 -14.806,-27.042 -29.665,-30.792 -0.171,-2.338 -0.262,-4.701 -0.262,-7.061 V 219.566 c 0,-4.435 2.188,-8.583 6.004,-11.383 4.46,-3.271 7.123,-8.524 7.123,-14.05 0,-5.52 -2.659,-10.769 -7.114,-14.043 -3.822,-2.802 -6.013,-6.954 -6.013,-11.389 v -64.457 c 0,-12.02 4.029,-23.451 11.042,-32.688 h 86.034 c 7.011,9.238 11.039,20.668 11.039,32.688 v 64.457 c 10e-4,4.434 -2.189,8.586 -6.009,11.392 z"
   id="path2"
   inkscape:connector-curvature="0" />
		<path
   d="m 276.048,84.447 c -2.06,0.799 -3.082,3.116 -2.282,5.176 2.172,5.6 3.274,11.513 3.274,17.577 v 44.45 c 0,2.209 1.791,4 4,4 2.209,0 4,-1.791 4,-4 V 107.2 c 0,-7.058 -1.284,-13.945 -3.816,-20.471 -0.798,-2.059 -3.113,-3.082 -5.176,-2.282 z"
   id="path4"
   inkscape:connector-curvature="0" />
		<path
   d="m 275.495,228.729 v 178.828 c 0,2.209 1.791,4 4,4 2.209,0 4,-1.791 4,-4 V 228.729 c 0,-2.209 -1.791,-4 -4,-4 -2.209,0 -4,1.791 -4,4 z"
   id="path6"
   inkscape:connector-curvature="0" />
	</g>
</g>
<g
   id="g12"
   transform="translate(-175.495,-361.105)">
</g>
<g
   id="g14"
   transform="translate(-175.495,-361.105)">
</g>
<g
   id="g16"
   transform="translate(-175.495,-361.105)">
</g>
<g
   id="g18"
   transform="translate(-175.495,-361.105)">
</g>
<g
   id="g20"
   transform="translate(-175.495,-361.105)">
</g>
<g
   id="g22"
   transform="translate(-175.495,-361.105)">
</g>
<g
   id="g24"
   transform="translate(-175.495,-361.105)">
</g>
<g
   id="g26"
   transform="translate(-175.495,-361.105)">
</g>
<g
   id="g28"
   transform="translate(-175.495,-361.105)">
</g>
<g
   id="g30"
   transform="translate(-175.495,-361.105)">
</g>
<g
   id="g32"
   transform="translate(-175.495,-361.105)">
</g>
<g
   id="g34"
   transform="translate(-175.495,-361.105)">
</g>
<g
   id="g36"
   transform="translate(-175.495,-361.105)">
</g>
<g
   id="g38"
   transform="translate(-175.495,-361.105)">
</g>
<g
   id="g40"
   transform="translate(-175.495,-361.105)">
</g>
</svg>