<?xml version="1.0" encoding="UTF-8" standalone="no"?>
<!-- Generator: Adobe Illustrator 19.0.0, SVG Export Plug-In . SVG Version: 6.00 Build 0)  -->

<svg
   xmlns:dc="http://purl.org/dc/elements/1.1/"
   xmlns:cc="http://creativecommons.org/ns#"
   xmlns:rdf="http://www.w3.org/1999/02/22-rdf-syntax-ns#"
   xmlns:svg="http://www.w3.org/2000/svg"
   xmlns="http://www.w3.org/2000/svg"
   xmlns:sodipodi="http://sodipodi.sourceforge.net/DTD/sodipodi-0.dtd"
   xmlns:inkscape="http://www.inkscape.org/namespaces/inkscape"
   version="1.1"
   id="Capa_1"
   x="0px"
   y="0px"
   viewBox="0 0 43.903276 114"
   xml:space="preserve"
   sodipodi:docname="water_small.svg"
   width="43.903275"
   height="114"
   inkscape:version="0.92.3 (2405546, 2018-03-11)"><metadata
   id="metadata59"><rdf:RDF><cc:Work
       rdf:about=""><dc:format>image/svg+xml</dc:format><dc:type
         rdf:resource="http://purl.org/dc/dcmitype/StillImage" /><dc:title></dc:title></cc:Work></rdf:RDF></metadata><defs
   id="defs57" /><sodipodi:namedview
   pagecolor="#ffffff"
   bordercolor="#666666"
   borderopacity="1"
   objecttolerance="10"
   gridtolerance="10"
   guidetolerance="10"
   inkscape:pageopacity="0"
   inkscape:pageshadow="2"
   inkscape:window-width="1853"
   inkscape:window-height="1025"
   id="namedview55"
   showgrid="false"
   fit-margin-top="0"
   fit-margin-left="0"
   fit-margin-right="0"
   fit-margin-bottom="0"
   inkscape:zoom="0.5402609"
   inkscape:cx="-227.77152"
   inkscape:cy="218.41299"
   inkscape:window-x="67"
   inkscape:window-y="27"
   inkscape:window-maximized="1"
   inkscape:current-layer="Capa_1" />
<g
   id="g22"
   transform="matrix(0.26097348,0,0,0.26097348,-35.048259,0)">
	<g
   id="g20">
		<path
   d="M 275.965,169.729 C 262.209,132.392 253.494,63.751 251.636,48.137 c 2.857,-0.458 5.049,-2.933 5.049,-5.917 V 9.648 C 256.685,4.328 252.357,0 247.037,0 h -57.248 c -5.32,0 -9.648,4.328 -9.648,9.648 V 42.22 c 0,2.984 2.192,5.459 5.049,5.917 -1.857,15.612 -10.569,84.245 -24.329,121.592 -13.989,37.97 -28.712,83.826 -26.302,147.686 1.232,32.644 5.829,63.937 9.468,84.441 3.597,20.263 21.131,34.97 41.692,34.97 h 65.388 c 20.562,0 38.096,-14.707 41.692,-34.97 3.639,-20.502 8.235,-51.794 9.467,-84.441 2.411,-63.859 -12.312,-109.716 -26.301,-147.686 z M 248.685,40.22 H 188.141 V 25.622 l 60.544,5.004 c 0,0 0,9.594 0,9.594 z m -5.099,8 c 0.746,6.437 2.94,24.441 6.466,45.886 H 186.774 C 190.3,72.661 192.493,54.657 193.239,48.22 Z M 189.789,8 h 57.248 c 0.909,0 1.648,0.739 1.648,1.648 v 12.95 L 188.141,17.594 V 9.648 C 188.141,8.739 188.88,8 189.789,8 Z m 104.484,309.114 c -1.215,32.19 -5.755,63.09 -9.35,83.344 -2.917,16.438 -17.139,28.369 -33.815,28.369 h -65.389 c -16.676,0 -30.898,-11.931 -33.815,-28.369 -3.595,-20.255 -8.136,-51.157 -9.351,-83.344 -2.125,-56.313 8.302,-97.085 25.815,-144.619 7.139,-19.378 12.873,-46.319 17.054,-70.389 h 65.982 c 4.181,24.069 9.915,51.01 17.054,70.389 17.513,47.533 27.94,88.306 25.815,144.619 z"
   id="path2"
   inkscape:connector-curvature="0" />
		<path
   d="m 231.724,60.947 3.321,24.853 c 0.269,2.01 1.986,3.471 3.96,3.471 0.176,0 0.355,-0.012 0.535,-0.036 2.19,-0.292 3.728,-2.305 3.435,-4.495 l -3.321,-24.853 c -0.293,-2.189 -2.305,-3.731 -4.495,-3.435 -2.19,0.293 -3.728,2.305 -3.435,4.495 z"
   id="path4"
   inkscape:connector-curvature="0" />
		<path
   d="m 242.07,129.576 c 1.449,6.006 2.947,12.218 3.422,14.617 0.376,1.905 2.048,3.225 3.919,3.225 0.257,0 0.519,-0.025 0.78,-0.077 2.167,-0.428 3.577,-2.533 3.148,-4.7 -0.506,-2.562 -1.957,-8.575 -3.492,-14.941 -1.534,-6.358 -3.12,-12.934 -3.497,-15 -0.396,-2.173 -2.475,-3.614 -4.652,-3.218 -2.173,0.396 -3.614,2.479 -3.218,4.652 0.418,2.289 1.959,8.678 3.59,15.442 z"
   id="path6"
   inkscape:connector-curvature="0" />
		<path
   d="m 258.331,159.464 c -0.522,-2.147 -2.688,-3.465 -4.832,-2.941 -2.146,0.522 -3.463,2.685 -2.941,4.832 2.928,12.039 5.834,22.044 8.639,29.74 13.578,37.245 21.662,69.188 20.015,113.29 -1.09,29.186 -4.641,63.955 -9.744,95.392 -0.354,2.18 1.127,4.235 3.307,4.589 0.217,0.035 0.433,0.052 0.646,0.052 1.927,0 3.625,-1.396 3.943,-3.359 5.153,-31.748 8.74,-66.875 9.841,-96.375 1.879,-50.314 -9.593,-86.428 -20.493,-116.329 -2.703,-7.419 -5.523,-17.139 -8.381,-28.891 z"
   id="path8"
   inkscape:connector-curvature="0" />
		<path
   d="m 198.416,293.917 c 0,-7.995 -6.505,-14.5 -14.5,-14.5 -7.995,0 -14.5,6.505 -14.5,14.5 0,7.995 6.505,14.5 14.5,14.5 7.995,0 14.5,-6.505 14.5,-14.5 z m -21,0 c 0,-3.584 2.916,-6.5 6.5,-6.5 3.584,0 6.5,2.916 6.5,6.5 0,3.584 -2.916,6.5 -6.5,6.5 -3.584,0 -6.5,-2.916 -6.5,-6.5 z"
   id="path10"
   inkscape:connector-curvature="0" />
		<path
   d="m 188.916,224.417 c 6.893,0 12.5,-5.607 12.5,-12.5 0,-6.893 -5.607,-12.5 -12.5,-12.5 -6.893,0 -12.5,5.607 -12.5,12.5 0,6.893 5.608,12.5 12.5,12.5 z m 0,-17 c 2.481,0 4.5,2.019 4.5,4.5 0,2.481 -2.019,4.5 -4.5,4.5 -2.481,0 -4.5,-2.019 -4.5,-4.5 0,-2.481 2.019,-4.5 4.5,-4.5 z"
   id="path12"
   inkscape:connector-curvature="0" />
		<path
   d="m 250.416,247.917 c 0,-6.893 -5.607,-12.5 -12.5,-12.5 -6.893,0 -12.5,5.607 -12.5,12.5 0,6.893 5.607,12.5 12.5,12.5 6.893,0 12.5,-5.607 12.5,-12.5 z m -17,0 c 0,-2.481 2.019,-4.5 4.5,-4.5 2.481,0 4.5,2.019 4.5,4.5 0,2.481 -2.019,4.5 -4.5,4.5 -2.481,0 -4.5,-2.019 -4.5,-4.5 z"
   id="path14"
   inkscape:connector-curvature="0" />
		<path
   d="m 249.416,303.417 c -7.168,0 -13,5.832 -13,13 0,7.168 5.832,13 13,13 7.168,0 13,-5.832 13,-13 0,-7.168 -5.831,-13 -13,-13 z m 0,18 c -2.757,0 -5,-2.243 -5,-5 0,-2.757 2.243,-5 5,-5 2.757,0 5,2.243 5,5 0,2.757 -2.243,5 -5,5 z"
   id="path16"
   inkscape:connector-curvature="0" />
		<path
   d="m 192.416,376.417 c -7.168,0 -13,5.832 -13,13 0,7.168 5.832,13 13,13 7.168,0 13,-5.832 13,-13 0,-7.168 -5.831,-13 -13,-13 z m 0,18 c -2.757,0 -5,-2.243 -5,-5 0,-2.757 2.243,-5 5,-5 2.757,0 5,2.243 5,5 0,2.757 -2.243,5 -5,5 z"
   id="path18"
   inkscape:connector-curvature="0" />
	</g>
</g>
<g
   id="g24"
   transform="translate(-134.29816,-322.826)">
</g>
<g
   id="g26"
   transform="translate(-134.29816,-322.826)">
</g>
<g
   id="g28"
   transform="translate(-134.29816,-322.826)">
</g>
<g
   id="g30"
   transform="translate(-134.29816,-322.826)">
</g>
<g
   id="g32"
   transform="translate(-134.29816,-322.826)">
</g>
<g
   id="g34"
   transform="translate(-134.29816,-322.826)">
</g>
<g
   id="g36"
   transform="translate(-134.29816,-322.826)">
</g>
<g
   id="g38"
   transform="translate(-134.29816,-322.826)">
</g>
<g
   id="g40"
   transform="translate(-134.29816,-322.826)">
</g>
<g
   id="g42"
   transform="translate(-134.29816,-322.826)">
</g>
<g
   id="g44"
   transform="translate(-134.29816,-322.826)">
</g>
<g
   id="g46"
   transform="translate(-134.29816,-322.826)">
</g>
<g
   id="g48"
   transform="translate(-134.29816,-322.826)">
</g>
<g
   id="g50"
   transform="translate(-134.29816,-322.826)">
</g>
<g
   id="g52"
   transform="translate(-134.29816,-322.826)">
</g>
</svg>