<?xml version="1.0" encoding="UTF-8" standalone="no"?>
<!-- Generator: Adobe Illustrator 19.0.0, SVG Export Plug-In . SVG Version: 6.00 Build 0)  -->

<svg
   xmlns:dc="http://purl.org/dc/elements/1.1/"
   xmlns:cc="http://creativecommons.org/ns#"
   xmlns:rdf="http://www.w3.org/1999/02/22-rdf-syntax-ns#"
   xmlns:svg="http://www.w3.org/2000/svg"
   xmlns="http://www.w3.org/2000/svg"
   xmlns:sodipodi="http://sodipodi.sourceforge.net/DTD/sodipodi-0.dtd"
   xmlns:inkscape="http://www.inkscape.org/namespaces/inkscape"
   version="1.1"
   id="Capa_1"
   x="0px"
   y="0px"
   viewBox="0 0 69.999999 114.3841"
   xml:space="preserve"
   sodipodi:docname="water_big.svg"
   width="70"
   height="114.3841"
   inkscape:version="0.92.3 (2405546, 2018-03-11)"><metadata
   id="metadata49"><rdf:RDF><cc:Work
       rdf:about=""><dc:format>image/svg+xml</dc:format><dc:type
         rdf:resource="http://purl.org/dc/dcmitype/StillImage" /><dc:title></dc:title></cc:Work></rdf:RDF></metadata><defs
   id="defs47" /><sodipodi:namedview
   pagecolor="#ffffff"
   bordercolor="#666666"
   borderopacity="1"
   objecttolerance="10"
   gridtolerance="10"
   guidetolerance="10"
   inkscape:pageopacity="0"
   inkscape:pageshadow="2"
   inkscape:window-width="1853"
   inkscape:window-height="1025"
   id="namedview45"
   showgrid="false"
   fit-margin-top="0"
   fit-margin-left="0"
   fit-margin-right="0"
   fit-margin-bottom="0"
   inkscape:zoom="0.55057471"
   inkscape:cx="131.1585"
   inkscape:cy="214.32149"
   inkscape:window-x="67"
   inkscape:window-y="27"
   inkscape:window-maximized="1"
   inkscape:current-layer="Capa_1" />
<g
   id="g12"
   transform="matrix(0.26685168,0,0,0.26685168,-22.192186,0)">
	<g
   id="g10">
		<path
   d="m 345.479,149.833 v -8.727 c 0,-12.231 -9.698,-22.235 -21.809,-22.736 -5.16,-13.478 -16.799,-23.645 -31,-26.859 L 278.398,88.28 C 256.251,83.269 240.782,63.91 240.782,41.202 V 24.041 c 2.903,-2.264 4.78,-5.784 4.78,-9.742 C 245.562,6.415 239.148,0 231.264,0 h -33.887 c -7.885,0 -14.299,6.415 -14.299,14.299 0,3.958 1.877,7.478 4.779,9.741 v 17.162 c 0,22.709 -15.468,42.068 -37.615,47.078 l -14.273,3.231 c -14.201,3.215 -25.84,13.381 -31,26.859 -12.11,0.504 -21.806,10.507 -21.806,22.736 v 8.727 c 0,6.482 4.034,12.03 9.719,14.293 v 28.281 c -5.746,2.826 -9.719,8.723 -9.719,15.546 0,6.824 3.975,12.722 9.722,15.547 v 114.026 c -3.486,2.601 -5.801,7.594 -5.801,13.458 0,5.862 2.313,10.855 5.798,13.456 v 11.822 c -5.742,2.788 -9.719,8.66 -9.719,15.459 v 7.364 c 0,16.297 13.259,29.556 29.557,29.556 h 20.037 v 0.002 h 163.126 v -0.002 h 20.041 c 16.298,0 29.557,-13.259 29.557,-29.556 v -7.364 c 0,-6.801 -3.979,-12.674 -9.723,-15.46 v -11.817 c 3.487,-2.6 5.803,-7.595 5.803,-13.459 0,-5.866 -2.317,-10.862 -5.806,-13.462 V 223.502 c 5.749,-2.824 9.726,-8.723 9.726,-15.549 0,-6.825 -3.975,-12.723 -9.723,-15.547 v -28.278 c 5.687,-2.263 9.721,-7.811 9.721,-14.295 z M 195.857,26.659 h 36.925 v 14.543 c 0,2.086 0.125,4.144 0.344,6.175 h -37.612 c 0.219,-2.031 0.344,-4.089 0.344,-6.175 V 26.659 Z M 197.376,8 h 33.887 c 3.474,0 6.299,2.826 6.299,6.299 0,2.404 -1.956,4.36 -4.36,4.36 h -37.764 c -2.404,0 -4.36,-1.956 -4.36,-4.36 0,-3.473 2.824,-6.299 6.298,-6.299 z m -3.301,47.377 h 40.489 c 1.421,5.541 3.661,10.763 6.604,15.521 h -53.696 c 2.942,-4.758 5.183,-9.979 6.603,-15.521 z m 143.404,343.708 c 0,11.886 -9.67,21.556 -21.557,21.556 H 112.72 c -11.887,10e-4 -21.557,-9.669 -21.557,-21.556 v -7.364 c 0,-5.068 4.123,-9.191 9.191,-9.191 h 22.126 c 2.209,0 4,-1.791 4,-4 0,-2.209 -1.791,-4 -4,-4 h -21.598 v -8.163 h 39.623 c 2.209,0 4,-1.791 4,-4 0,-2.209 -1.791,-4 -4,-4 H 98.47 c -1.193,0 -3.386,-2.803 -3.386,-7.382 0,-4.579 2.192,-7.382 3.386,-7.382 h 123.035 c 2.209,0 4,-1.791 4,-4 0,-2.209 -1.791,-4 -4,-4 H 100.885 V 225.284 h 226.87 v 110.318 h -79.25 c -2.209,0 -4,1.791 -4,4 0,2.209 1.791,4 4,4 h 81.669 c 1.194,0 3.387,2.803 3.387,7.382 0,4.579 -2.192,7.382 -3.387,7.382 H 169.505 c -2.209,0 -4,1.791 -4,4 0,2.209 1.791,4 4,4 h 158.253 v 8.163 h -25.253 c -2.209,0 -4,1.791 -4,4 0,2.209 1.791,4 4,4 h 25.784 c 5.068,0 9.191,4.123 9.191,9.191 v 7.365 z M 328.148,217.284 H 100.494 c -5.146,0 -9.331,-4.186 -9.331,-9.331 0,-5.145 4.186,-9.331 9.331,-9.331 h 132.011 c 2.209,0 4,-1.791 4,-4 0,-2.209 -1.791,-4 -4,-4 H 100.882 v -25.4 h 70.623 c 2.209,0 4,-1.791 4,-4 0,-2.209 -1.791,-4 -4,-4 H 98.553 c -4.074,0 -7.39,-3.315 -7.39,-7.39 v -8.727 c 0,-8.139 6.622,-14.76 14.761,-14.76 h 24.557 c 2.209,0 4,-1.791 4,-4 0,-2.209 -1.791,-4 -4,-4 h -16.769 c 4.672,-9.548 13.475,-16.645 24.023,-19.032 l 14.273,-3.231 c 11.758,-2.659 21.893,-8.797 29.453,-17.185 h 65.719 c 7.561,8.387 17.695,14.524 29.453,17.185 l 14.272,3.231 c 10.549,2.388 19.351,9.484 24.023,19.032 H 298.48 c -2.209,0 -4,1.791 -4,4 0,2.209 1.791,4 4,4 h 24.239 c 8.139,0 14.761,6.622 14.761,14.76 v 8.727 c 0,4.075 -3.315,7.39 -7.39,7.39 H 200.505 c -2.209,0 -4,1.791 -4,4 0,2.209 1.791,4 4,4 h 127.253 v 25.4 h -67.253 c -2.209,0 -4,1.791 -4,4 0,2.209 1.791,4 4,4 h 67.645 c 5.146,0 9.331,4.186 9.331,9.331 0,5.145 -4.187,9.331 -9.333,9.331 z"
   id="path2"
   inkscape:connector-curvature="0" />
		<path
   d="m 313.505,331.271 c 2.209,0 4,-1.791 4,-4 v -94 c 0,-2.209 -1.791,-4 -4,-4 -2.209,0 -4,1.791 -4,4 v 94 c 0,2.208 1.791,4 4,4 z"
   id="path4"
   inkscape:connector-curvature="0" />
		<path
   d="m 313.505,186.271 c 2.209,0 4,-1.791 4,-4 v -8 c 0,-2.209 -1.791,-4 -4,-4 -2.209,0 -4,1.791 -4,4 v 8 c 0,2.208 1.791,4 4,4 z"
   id="path6"
   inkscape:connector-curvature="0" />
		<path
   d="m 325.005,152.521 c 2.209,0 4,-1.791 4,-4 v -11.5 c 0,-2.209 -1.791,-4 -4,-4 -2.209,0 -4,1.791 -4,4 v 11.5 c 0,2.208 1.791,4 4,4 z"
   id="path8"
   inkscape:connector-curvature="0" />
	</g>
</g>
<g
   id="g14"
   transform="translate(-83.162999,-314.25889)">
</g>
<g
   id="g16"
   transform="translate(-83.162999,-314.25889)">
</g>
<g
   id="g18"
   transform="translate(-83.162999,-314.25889)">
</g>
<g
   id="g20"
   transform="translate(-83.162999,-314.25889)">
</g>
<g
   id="g22"
   transform="translate(-83.162999,-314.25889)">
</g>
<g
   id="g24"
   transform="translate(-83.162999,-314.25889)">
</g>
<g
   id="g26"
   transform="translate(-83.162999,-314.25889)">
</g>
<g
   id="g28"
   transform="translate(-83.162999,-314.25889)">
</g>
<g
   id="g30"
   transform="translate(-83.162999,-314.25889)">
</g>
<g
   id="g32"
   transform="translate(-83.162999,-314.25889)">
</g>
<g
   id="g34"
   transform="translate(-83.162999,-314.25889)">
</g>
<g
   id="g36"
   transform="translate(-83.162999,-314.25889)">
</g>
<g
   id="g38"
   transform="translate(-83.162999,-314.25889)">
</g>
<g
   id="g40"
   transform="translate(-83.162999,-314.25889)">
</g>
<g
   id="g42"
   transform="translate(-83.162999,-314.25889)">
</g>
</svg>